<svg height="48pt" viewBox="0 0 48 48" width="48pt" xmlns="http://www.w3.org/2000/svg" xmlns:xlink="http://www.w3.org/1999/xlink"><linearGradient id="a" gradientTransform="matrix(47 0 0 45 .5 1.5)" gradientUnits="userSpaceOnUse" x1=".061897" x2=".990425" y1=".147162" y2=".986581"><stop offset="0" stop-color="#16b5e4"/><stop offset=".98260869565" stop-color="#f520fa"/></linearGradient><path d="m5.5 4.5c-1.104 0-2 .896-2 2v26.5c0 .828-.672 1.5-1.5 1.5-.828 0-1.5-.672-1.5-1.5v-27.5c0-2.208 1.792-4 4-4h15.5c1.104 0 2 .672 2 1.5 0 .828-.896 1.5-2 1.5zm37 0c1.104 0 2 .896 2 2v16.5c0 .828.672 1.5 1.5 1.5.828 0 1.5-.672 1.5-1.5v-17.5c0-2.208-1.792-4-4-4h-6.5c-1.104 0-2 .672-2 1.5 0 .828.896 1.5 2 1.5zm2 26.5c0-.828.672-1.5 1.5-1.5.828 0 1.5.672 1.5 1.5v11.5c0 2.208-1.792 4-4 4h-39c-2.208 0-4-1.792-4-4v-1.5c0-.828.672-1.5 1.5-1.5.828 0 1.5.672 1.5 1.5v.5c0 1.104.896 2 2 2h37c1.104 0 2-.896 2-2zm-18.877-28-.016.4c-.016.453-.352 8.639-.621 15.112-.098 2.364-.168 4.31-.156 4.322s.03.015.039.006c.01-.009 1.118-3.204 2.463-7.1 3.496-10.125 4.234-12.261 4.33-12.515l.086-.225zm-6.59 8.348s-4.269 3.561-4.305 3.654c-.014.037.698.767 2.086 2.139 1.16 1.145 3.173 3.135 4.475 4.422 1.302 1.286 2.382 2.337 2.398 2.337.017 0 .032-.015.032-.033h-.002c0-.018-.878-2.39-1.951-5.273-1.074-2.883-2.117-5.689-2.319-6.235s-.414-1.011-.414-1.011zm16.557 2.623c-.046-.016-9.655 10.179-9.674 10.263-.01.045.011.047.1.016.061-.021 2.89-1.127 6.289-2.455 3.398-1.328 6.188-2.434 6.195-2.455.016-.05-2.857-5.352-2.91-5.369zm-19.362 6.58c-.042-.016-.067.005-.082.068-.033.142-.687 5.366-.687 5.485 0 .078.021.105.078.105.042 0 1.526-.299 3.297-.666s3.235-.685 3.256-.705c.02-.021.028-.043.019-.051-.104-.09-5.836-4.219-5.881-4.236zm20.379 4.328c-.041-.037-9.704.832-9.746.877-.017.018-.014.041.01.051.021.009 1.967 1.08 4.324 2.379 2.357 1.298 4.321 2.359 4.364 2.355.07-.006.118-.242.58-2.82h-.002c.277-1.547.488-2.826.47-2.842zm-13.757 1.404c-.051.019-3.199 1.519-6.999 3.332-3.799 1.813-7.705 3.675-8.679 4.139s-1.772.867-1.772.894c0 .028.689 1.042 1.532 2.254 1.994 2.87 1.953 2.811 1.988 2.811.016 0 3.171-3.011 7.012-6.692v-.002c3.84-3.68 6.988-6.71 6.996-6.732.01-.026-.018-.027-.078-.004zm2.625.715c-.019-.007-.036.004-.036.025s.369.874.819 1.893c.449 1.02 2.011 4.557 3.468 7.861 1.458 3.305 2.655 6.06 2.682 6.116l.051.107h.08c.048-.027.138-.075.141-.078.011-.015 1.064-.683 2.339-1.486 1.276-.804 2.319-1.473 2.319-1.489 0-.035-11.815-12.931-11.863-12.949zm-1.393.275c-.013-.012-.027-.006-.043.012-.079.089-4.705 8.357-4.705 8.408 0 .043.132.072.539.125.296.039 1.567.206 2.826.371 1.259.166 2.314.291 2.342.282.035-.013.043-.065.027-.178-.02-.148-.708-6.712-.867-8.273-.052-.508-.08-.709-.119-.747z" fill="url(#a)" fill-rule="evenodd"/></svg>